<?xml version="1.0" encoding="UTF-8"?><svg xmlns="http://www.w3.org/2000/svg" viewBox="0 0 213 45.97"><defs><style>.cls-1{letter-spacing:-.07em;}.cls-2{letter-spacing:-.04em;}.cls-3{letter-spacing:-.06em;}.cls-4{font-family:Ranfelas, Ranfelas;font-size:39.77px;}.cls-5{letter-spacing:-.07em;}.cls-6{font-family:Inter-Regular, Inter;font-size:5.47px;font-variation-settings:'wght' 400, 'slnt' 0;}.cls-7{letter-spacing:-.05em;}</style></defs><g id="Layer_1"><text class="cls-4" transform="translate(0 35.79)"><tspan x="0" y="0">Artisan</tspan></text></g><g id="Layer_3"><text class="cls-6" transform="translate(146.44 17.88)"><tspan class="cls-3" x="0" y="0">P</tspan><tspan class="cls-1" x="3.17" y="0">ow</tspan><tspan class="cls-7" x="10.12" y="0">e</tspan><tspan class="cls-5" x="13.03" y="0">r</tspan><tspan class="cls-7" x="14.7" y="0">ed wi</tspan><tspan class="cls-2" x="27.19" y="0">t</tspan><tspan class="cls-7" x="28.97" y="0">h</tspan></text></g><g id="Layer_2"><path d="m169.39,23.66h-.08c-2.57,0-4.17,1.6-4.17,4.18v1.39c0,2.58,1.59,4.18,4.17,4.18h.08c2.57,0,4.17-1.6,4.17-4.18v-1.39c0-2.58-1.6-4.18-4.17-4.18Zm2.37,5.67c0,1.69-.88,2.67-2.41,2.69-1.53-.02-2.41-1-2.41-2.69v-1.58c0-1.69.88-2.67,2.41-2.69,1.53.02,2.41,1,2.41,2.69v1.58Zm22.31-3.18h-.08c-.97,0-1.67.33-2.01.96l-.1.19v-.99h-1.66v6.91h1.74v-4.11c0-.97.52-1.52,1.42-1.54.86.02,1.36.56,1.36,1.5v4.15h1.74v-4.45c0-1.64-.9-2.62-2.41-2.62h0Zm18.93-.97v-1.32h-5.75v1.32h2.02v6.72h-2.02v1.32h5.75v-1.32h-2.02v-6.72s2.02,0,2.02,0Zm-10.31-1.32h-1.8l-3.35,9.37h1.89l.64-2.01h3.66v.02l.64,1.99h1.89l-3.36-9.37h-.2Zm-2.22,6.03l1.41-4.43,1.4,4.43h-2.82Zm-21.7-3.75h-.08c-.87,0-1.63.36-2.02.97l-.1.15v-.96h-1.66v9.29h1.74v-3.24l.1.15c.37.56,1.11.89,1.96.89h.08c1.44,0,2.88-.93,2.88-3.03v-1.18c0-1.51-.89-3.03-2.89-3.03h-.01Zm1.15,4.12c0,1.1-.63,1.78-1.66,1.8-.95-.02-1.62-.74-1.62-1.78v-1.04c0-1.04.67-1.78,1.63-1.8,1.01.02,1.64.7,1.64,1.8,0,0,0,1.01,0,1.01Zm6.08-4.12h0s-.07,0-.1,0-.07,0-.1,0h0c-1.96,0-3.18,1.23-3.18,3.2v.97c0,1.9,1.23,3.07,3.21,3.07.04,0,.08,0,.12,0,.03,0,.05,0,.08,0,1.33,0,2.25-.48,2.84-1.48l-1.17-.68c-.39.58-.91,1.01-1.66,1.01-1,0-1.6-.62-1.6-1.66v-.27h4.64v-1.14c0-1.84-1.2-3.02-3.07-3.02h0Zm-1.57,3.05v-.16c0-1.1.52-1.72,1.47-1.76.91.04,1.46.65,1.46,1.64v.27h-2.94Z"/><path d="m161.97,26.46c.37-1.11.24-2.32-.35-3.32-.89-1.54-2.67-2.33-4.41-1.96-.78-.87-1.89-1.36-3.05-1.36-1.78,0-3.35,1.14-3.9,2.83-1.14.24-2.13.95-2.71,1.96-.89,1.54-.69,3.48.51,4.8-.37,1.11-.24,2.32.35,3.32.89,1.55,2.67,2.34,4.41,1.97.77.87,1.88,1.37,3.05,1.36,1.78,0,3.35-1.14,3.9-2.83,1.14-.24,2.13-.95,2.7-1.96.9-1.54.69-3.48-.5-4.8h0Zm-1.26-2.79c.35.62.48,1.34.36,2.03-.02-.02-.07-.04-.09-.05l-3.23-1.87c-.16-.09-.37-.09-.53,0l-3.79,2.19v-1.61l3.13-1.81c1.46-.84,3.32-.34,4.16,1.12Zm-7.29,3.34l1.59-.92,1.59.92v1.84l-1.59.92-1.59-.92v-1.84Zm.74-6.13c.71,0,1.4.25,1.95.7-.02.01-.07.04-.1.05l-3.23,1.86c-.16.09-.26.27-.26.46v4.38l-1.39-.8v-3.62c0-1.68,1.36-3.04,3.04-3.05h0Zm-5.68,4.27h0c.36-.62.91-1.09,1.58-1.34v3.84c0,.19.1.36.26.46l3.78,2.18-1.4.81-3.12-1.8c-1.45-.84-1.95-2.7-1.11-4.16Zm.85,7.06h0c-.36-.61-.48-1.34-.36-2.03.02.02.07.04.09.05l3.23,1.87c.16.09.37.09.53,0l3.78-2.19v1.61l-3.13,1.8c-1.46.84-3.32.34-4.16-1.11h0Zm6.54,2.79c-.71,0-1.4-.25-1.95-.7.02-.01.07-.04.1-.05l3.23-1.86c.16-.09.27-.27.26-.46v-4.37l1.39.8v3.61c0,1.68-1.36,3.05-3.04,3.05h0Zm5.69-4.27c-.36.62-.92,1.09-1.58,1.33v-3.84c0-.19-.1-.37-.26-.46h0l-3.79-2.19,1.39-.8,3.13,1.8c1.46.84,1.95,2.7,1.11,4.16h0Z"/></g></svg>